<svg xmlns="http://www.w3.org/2000/svg" version="1.1" xmlns:xlink="http://www.w3.org/1999/xlink" xmlns:svgjs="http://svgjs.dev/svgjs" width="1000" height="1000" viewBox="0 0 1000 1000"><rect width="1000" height="1000" fill="#ffffff"></rect><g transform="matrix(0.7,0,0,0.7,149.57575757575756,282.1265587044535)"><svg viewBox="0 0 396 247" data-background-color="#ffffff" preserveAspectRatio="xMidYMid meet" height="623" width="1000" xmlns="http://www.w3.org/2000/svg" xmlns:xlink="http://www.w3.org/1999/xlink"><g id="tight-bounds" transform="matrix(1,0,0,1,0.2400000000000091,-0.09999999999999432)"><svg viewBox="0 0 395.52 247.2" height="247.2" width="395.52"><g><svg></svg></g><g><svg viewBox="0 0 395.52 247.2" height="247.2" width="395.52"><g transform="matrix(1,0,0,1,39.55199999999999,91.05234361968306)"><svg viewBox="0 0 316.416 65.09531276063386" height="65.09531276063386" width="316.416"><g><svg viewBox="0 0 316.416 65.09531276063386" height="65.09531276063386" width="316.416"><g><svg viewBox="0 0 316.416 65.09531276063386" height="65.09531276063386" width="316.416"><g><svg viewBox="0 0 316.416 65.09531276063386" height="65.09531276063386" width="316.416"><g><svg viewBox="0 0 316.416 65.09531276063386" height="65.09531276063386" width="316.416"><g><svg viewBox="0 0 316.416 65.09531276063386" height="65.09531276063386" width="316.416"><g transform="matrix(1,0,0,1,0,0)"><svg width="316.416" viewBox="4.449999809265137 -36.5 179.83999633789062 37" height="65.09531276063386" data-palette-color="#d9bca9"><path d="M39.4 0L35.9 0 35.9-28.9 23.05-6.45 20.85-6.45 7.95-28.9 7.95 0 4.45 0 4.45-35.5 8.05-35.5 21.9-11.2 35.85-35.5 39.4-35.5 39.4 0ZM45.25-7.5L45.25-7.5Q45.25-9.95 46.65-11.73 48.05-13.5 50.52-14.48 53-15.45 56.25-15.45L56.25-15.45Q58.15-15.45 60.2-15.15 62.25-14.85 63.85-14.25L63.85-14.25 63.85-16.45Q63.85-19.75 61.9-21.7 59.95-23.65 56.5-23.65L56.5-23.65Q54.4-23.65 52.37-22.88 50.35-22.1 48.15-20.6L48.15-20.6 46.85-23Q49.4-24.75 51.85-25.63 54.3-26.5 56.85-26.5L56.85-26.5Q61.65-26.5 64.45-23.75 67.25-21 67.25-16.15L67.25-16.15 67.25-4.1Q67.25-3.4 67.55-3.08 67.85-2.75 68.5-2.7L68.5-2.7 68.5 0Q67.95 0.05 67.55 0.1 67.15 0.15 66.95 0.1L66.95 0.1Q65.7 0.05 65.05-0.7 64.4-1.45 64.35-2.3L64.35-2.3 64.3-4.2Q62.55-1.95 59.75-0.73 56.95 0.5 54.05 0.5L54.05 0.5Q51.55 0.5 49.52-0.58 47.5-1.65 46.37-3.48 45.25-5.3 45.25-7.5ZM62.7-5.5L62.7-5.5Q63.25-6.2 63.55-6.85 63.85-7.5 63.85-8L63.85-8 63.85-11.8Q62.15-12.45 60.32-12.8 58.5-13.15 56.65-13.15L56.65-13.15Q53-13.15 50.75-11.7 48.5-10.25 48.5-7.75L48.5-7.75Q48.5-6.3 49.25-5.03 50-3.75 51.45-2.93 52.9-2.1 54.85-2.1L54.85-2.1Q57.3-2.1 59.42-3.05 61.55-4 62.7-5.5ZM87.59-26.15L87.59-23.05Q84.19-22.95 81.62-21.15 79.05-19.35 78-16.2L78-16.2 78 0 74.59 0 74.59-26.05 77.8-26.05 77.8-19.8Q79.14-22.55 81.37-24.25 83.59-25.95 86.09-26.15L86.09-26.15Q86.59-26.2 86.97-26.2 87.34-26.2 87.59-26.15L87.59-26.15ZM114.44 0L110.74 0 101.09-13.35 95.54-8.15 95.54 0 92.14 0 92.14-36.5 95.54-36.5 95.54-11.8 110.29-26 114.04-26 103.39-15.35 114.44 0ZM128.54 0.5L128.54 0.5Q125.74 0.5 123.34-0.58 120.94-1.65 119.19-3.53 117.44-5.4 116.47-7.85 115.49-10.3 115.49-13.1L115.49-13.1Q115.49-16.75 117.17-19.8 118.84-22.85 121.79-24.68 124.74-26.5 128.49-26.5L128.49-26.5Q132.34-26.5 135.22-24.65 138.09-22.8 139.74-19.78 141.39-16.75 141.39-13.15L141.39-13.15Q141.39-12.75 141.39-12.38 141.39-12 141.34-11.8L141.34-11.8 119.04-11.8Q119.29-9 120.62-6.83 121.94-4.65 124.07-3.38 126.19-2.1 128.69-2.1L128.69-2.1Q131.24-2.1 133.52-3.4 135.79-4.7 136.69-6.8L136.69-6.8 139.64-6Q138.84-4.15 137.19-2.65 135.54-1.15 133.31-0.33 131.09 0.5 128.54 0.5ZM118.94-14.25L118.94-14.25 138.19-14.25Q137.99-17.1 136.67-19.25 135.34-21.4 133.22-22.63 131.09-23.85 128.54-23.85L128.54-23.85Q125.99-23.85 123.89-22.63 121.79-21.4 120.47-19.23 119.14-17.05 118.94-14.25ZM146.79-4.75L146.79-36.5 150.19-36.5 150.19-5.9Q150.19-3.95 150.89-3.35 151.59-2.75 152.59-2.75L152.59-2.75Q153.49-2.75 154.39-2.95 155.29-3.15 155.94-3.35L155.94-3.35 156.54-0.6Q155.59-0.2 154.21 0.05 152.84 0.3 151.84 0.3L151.84 0.3Q149.54 0.3 148.16-1.05 146.79-2.4 146.79-4.75L146.79-4.75ZM171.34 0.5L171.34 0.5Q168.54 0.5 166.16-0.58 163.79-1.65 162.06-3.53 160.34-5.4 159.39-7.83 158.44-10.25 158.44-12.95L158.44-12.95Q158.44-15.75 159.39-18.18 160.34-20.6 162.09-22.48 163.84-24.35 166.21-25.43 168.59-26.5 171.39-26.5L171.39-26.5Q174.19-26.5 176.54-25.43 178.89-24.35 180.64-22.48 182.39-20.6 183.34-18.18 184.29-15.75 184.29-12.95L184.29-12.95Q184.29-10.25 183.34-7.83 182.39-5.4 180.66-3.53 178.94-1.65 176.56-0.58 174.19 0.5 171.34 0.5ZM161.89-12.9L161.89-12.9Q161.89-10 163.16-7.63 164.44-5.25 166.59-3.88 168.74-2.5 171.34-2.5L171.34-2.5Q173.94-2.5 176.09-3.9 178.24-5.3 179.54-7.73 180.84-10.15 180.84-13L180.84-13Q180.84-15.9 179.54-18.3 178.24-20.7 176.09-22.1 173.94-23.5 171.34-23.5L171.34-23.5Q168.74-23.5 166.61-22.05 164.49-20.6 163.19-18.23 161.89-15.85 161.89-12.9Z" opacity="1" transform="matrix(1,0,0,1,0,0)" fill="#000000" class="undefined-text-0" data-fill-palette-color="primary" id="text-0"></path></svg></g></svg></g></svg></g></svg></g></svg></g></svg></g></svg></g><g mask="url(#77c42e4f-77d1-429b-a102-423262df3681)"><g transform="matrix(2.7244444444444444, 0, 0, 2.7244444444444444, 90.96177569919162, 1)"><svg xmlns="http://www.w3.org/2000/svg" xmlns:xlink="http://www.w3.org/1999/xlink" version="1.1" x="0" y="0" viewBox="10.100000381469727 5.199999809265137 78.4000015258789 90" enable-background="new 0 0 100 100" xml:space="preserve" height="90" width="78.4000015258789" class="icon-none" data-fill-palette-color="accent" id="none"><polygon fill-rule="evenodd" clip-rule="evenodd" fill="#000000" points="88.5,28.2 68.4,59.9 68.5,22.3 " data-fill-palette-color="accent"></polygon><polygon fill-rule="evenodd" clip-rule="evenodd" fill="#000000" points="49.8,5.2 67.2,38.5 34.7,19.6 " data-fill-palette-color="accent"></polygon><polygon fill-rule="evenodd" clip-rule="evenodd" fill="#000000" points="67.8,38.3 67.8,22.3 60.8,24.5 " data-fill-palette-color="accent"></polygon><polygon fill-rule="evenodd" clip-rule="evenodd" fill="#000000" points="88.2,73.2 50.6,71.7 83.2,52.9 " data-fill-palette-color="accent"></polygon><polygon fill-rule="evenodd" clip-rule="evenodd" fill="#000000" points="69.1,60.3 82.8,52.3 77.4,47.4 " data-fill-palette-color="accent"></polygon><polygon fill-rule="evenodd" clip-rule="evenodd" fill="#000000" points="48.7,95.2 31.5,61.9 63.9,80.9 " data-fill-palette-color="accent"></polygon><polygon fill-rule="evenodd" clip-rule="evenodd" fill="#000000" points="50.5,72.2 64.2,80.2 65.8,73.1 " data-fill-palette-color="accent"></polygon><polygon fill-rule="evenodd" clip-rule="evenodd" fill="#000000" points="10.1,72 30.5,40.4 30.1,78 " data-fill-palette-color="accent"></polygon><polygon fill-rule="evenodd" clip-rule="evenodd" fill="#000000" points="30.9,62.1 30.8,78 37.8,75.8 " data-fill-palette-color="accent"></polygon><polygon fill-rule="evenodd" clip-rule="evenodd" fill="#000000" points="11,27 48.5,28.9 15.8,47.3 " data-fill-palette-color="accent"></polygon><polygon fill-rule="evenodd" clip-rule="evenodd" fill="#000000" points="30,40.1 16.1,47.9 21.5,52.9 " data-fill-palette-color="accent"></polygon><polygon fill-rule="evenodd" clip-rule="evenodd" fill="#000000" points="48.2,28.3 34.5,20.2 32.9,27.4 " data-fill-palette-color="accent"></polygon></svg></g></g></svg></g><defs><mask id="77c42e4f-77d1-429b-a102-423262df3681"><rect width="640" height="400" fill="white"></rect><rect width="348.05760000000004" height="95.83019487119266" fill="black" x="145.97119999999998" y="152.08490256440368" id="transform-me" transform="matrix(1,0,0,1,-122.24000000000001,-76.4)"></rect></mask></defs></svg><rect width="395.52" height="247.2" fill="none" stroke="none" visibility="hidden"></rect></g></svg></g></svg>